<svg xmlns="http://www.w3.org/2000/svg" viewBox="0 0 1024 1024" role="img" aria-label="Granito tecnológico Café Smart">
  <defs>
    <radialGradient id="glow" cx="50%" cy="70%" r="45%">
      <stop offset="0%" stop-color="#60b9ff" stop-opacity="0.85"/>
      <stop offset="65%" stop-color="#2d6bff" stop-opacity="0.25"/>
      <stop offset="100%" stop-color="#2d6bff" stop-opacity="0"/>
    </radialGradient>
    <linearGradient id="bean" x1="0%" y1="0%" x2="100%" y2="100%">
      <stop offset="0%" stop-color="#8f4b2a"/>
      <stop offset="45%" stop-color="#b35e37"/>
      <stop offset="100%" stop-color="#6f331e"/>
    </linearGradient>
    <linearGradient id="core" x1="0%" y1="0%" x2="0%" y2="100%">
      <stop offset="0%" stop-color="#86dbff"/>
      <stop offset="100%" stop-color="#1b7bff"/>
    </linearGradient>
    <filter id="soft" x="-20%" y="-20%" width="140%" height="140%">
      <feGaussianBlur stdDeviation="8"/>
    </filter>
  </defs>

  <rect width="1024" height="1024" fill="none"/>
  <ellipse cx="512" cy="860" rx="260" ry="80" fill="url(#glow)"/>

  <ellipse cx="512" cy="835" rx="240" ry="52" fill="#8be3ff" fill-opacity="0.18"/>
  <ellipse cx="512" cy="835" rx="205" ry="38" fill="#89d6ff" fill-opacity="0.15"/>
  <ellipse cx="512" cy="835" rx="170" ry="28" fill="#7bc8ff" fill-opacity="0.18"/>

  <ellipse cx="512" cy="500" rx="185" ry="280" fill="url(#bean)"/>
  <ellipse cx="590" cy="495" rx="95" ry="205" fill="#2b190f" fill-opacity="0.25"/>

  <path d="M515 230c38 40 58 84 58 132 0 62-33 123-35 182-3 66 40 136 38 212-2 88-45 154-93 207"
        fill="none" stroke="#3ca1ff" stroke-width="14" stroke-linecap="round" filter="url(#soft)"/>
  <path d="M516 235c36 38 55 79 55 124 0 60-31 119-33 176-3 63 37 130 35 203-2 84-43 147-87 197"
        fill="none" stroke="url(#core)" stroke-width="8" stroke-linecap="round"/>

  <g stroke="#84d6ff" stroke-width="5" fill="none" stroke-linecap="round">
    <path d="M585 355h58"/>
    <path d="M585 392h74"/>
    <path d="M585 430h90"/>
    <path d="M585 468h98"/>
    <path d="M585 506h103"/>
    <path d="M585 544h98"/>
    <path d="M585 582h88"/>
    <path d="M585 620h72"/>
  </g>

  <g fill="#9be0ff">
    <circle cx="668" cy="355" r="7"/>
    <circle cx="684" cy="430" r="7"/>
    <circle cx="693" cy="506" r="7"/>
    <circle cx="681" cy="582" r="7"/>
    <circle cx="662" cy="620" r="7"/>
  </g>

  <g stroke="#7fd0ff" stroke-width="4" fill="none" stroke-linecap="round">
    <path d="M538 330h-40"/>
    <path d="M538 372h-60"/>
    <path d="M538 414h-76"/>
    <path d="M538 456h-84"/>
    <path d="M538 498h-90"/>
    <path d="M538 540h-88"/>
    <path d="M538 582h-80"/>
    <path d="M538 624h-62"/>
  </g>

  <g fill="#9be0ff">
    <circle cx="488" cy="330" r="6"/>
    <circle cx="470" cy="414" r="6"/>
    <circle cx="444" cy="498" r="6"/>
    <circle cx="456" cy="582" r="6"/>
    <circle cx="484" cy="624" r="6"/>
  </g>
</svg>
